<svg width="79" height="18" viewBox="0 0 79 18" fill="none"
    xmlns="http://www.w3.org/2000/svg">
    <path d="M1.31099 9.43186C0.395351 9.64211 -0.174438 10.508 0.0482512 11.4361C0.2585 12.3642 1.14926 12.9091 2.05246 12.6988C2.9681 12.4886 3.52544 11.6227 3.3152 10.6946C3.10495 9.76528 2.21419 9.22161 1.31099 9.43186Z" fill="#FFB5D6"/>
    <path d="M2.10161 5.92936C2.83188 6.51159 3.85824 6.41206 4.45291 5.66934C5.04633 4.92663 4.91073 3.90027 4.1929 3.31805C3.47507 2.73582 2.43502 2.83534 1.84159 3.57805C1.24817 4.32077 1.38378 5.34713 2.10161 5.92936Z" fill="#D2A7E9"/>
    <path d="M6.53241 14.7282C5.67897 14.3201 4.70113 14.666 4.29307 15.5082C3.88501 16.3492 4.21843 17.3271 5.07311 17.7476C5.92655 18.1556 6.90439 17.8098 7.31245 16.9675C7.70806 16.1141 7.38709 15.1363 6.53241 14.7282Z" fill="#FFDCDC"/>
    <path d="M11.6799 14.7274C10.8264 15.1355 10.4918 16.1258 10.8998 16.9668C11.3079 17.8078 12.2733 18.1673 13.1392 17.7468C13.9926 17.3388 14.3273 16.3485 13.9192 15.5075C13.5112 14.6665 12.5346 14.3069 11.6799 14.7274Z" fill="#FFD1A4"/>
    <path d="M16.903 9.43182C15.9874 9.22157 15.109 9.76648 14.8988 10.6946C14.6885 11.6226 15.2459 12.501 16.1615 12.6988C17.0772 12.909 17.9555 12.3641 18.1657 11.436C18.376 10.508 17.8186 9.64207 16.903 9.43182Z" fill="url(#paint0_linear_28_3432)"/>
    <path d="M16.3458 5.93084C17.0761 5.34861 17.1993 4.32224 16.6058 3.57953C16.0124 2.83682 14.9848 2.73854 14.2545 3.31952C13.5243 3.90175 13.4011 4.92811 13.9945 5.67082C14.5892 6.41353 15.6156 6.51182 16.3458 5.93084Z" fill="#A0B0F6"/>
    <path d="M9.10646 0.0768204C8.14105 0.0768204 7.42322 0.81953 7.42322 1.76005C7.42322 2.70057 8.14105 3.44329 9.10646 3.44329C10.0594 3.44329 10.7897 2.70057 10.7897 1.76005C10.7884 0.818286 10.0594 0.0768204 9.10646 0.0768204Z" fill="#BBABED"/>
    <path d="M31.1474 5.46549C29.4019 5.46549 28.0807 6.10245 27.4512 7.18355V2.00571H25.233V15.5226H27.4512V10.5724C27.4512 9.62319 27.7299 8.85435 28.2872 8.25346C28.8446 7.65258 29.5475 7.35275 30.432 7.35275C32.2135 7.35275 32.9899 8.46993 32.9899 10.5724V15.5226H35.208V10.5724C35.208 8.91407 34.8933 7.64138 34.2501 6.7755C33.6082 5.90962 32.5781 5.46549 31.1474 5.46549Z" fill="#1C1917"/>
    <path d="M44.9182 10.5614C44.9182 11.5231 44.6756 12.3031 44.1904 12.8928C43.7053 13.4813 43.0148 13.7699 42.1303 13.7699C40.4694 13.7699 39.779 12.6639 39.779 10.5614V5.61127H37.5483V10.5739C37.5483 12.1962 37.8034 13.3979 38.3968 14.2986C38.9902 15.2118 39.9967 15.6684 41.39 15.6684C43.0745 15.6808 44.2502 15.1036 44.917 13.9627L45.014 15.5241H47.1352V5.61251H44.917V10.5614H44.9182Z" fill="#1C1917"/>
    <path d="M62.663 5.45322C60.7235 5.45322 59.3538 6.20962 58.7119 7.59178C58.1781 6.16234 57.0635 5.45322 55.379 5.45322C53.5726 5.45322 52.4579 5.98195 51.852 7.17129L51.755 5.60997H49.6575V15.5215H51.8757V10.5713C51.8757 9.59848 52.1183 8.8172 52.6022 8.22875C53.075 7.6403 53.7542 7.35168 54.6139 7.35168C56.2374 7.35168 56.9167 8.46886 56.9167 10.5713V15.5215H59.1473V10.5713C59.1473 9.59848 59.3774 8.8172 59.8626 8.22875C60.3354 7.6403 61.0134 7.35168 61.8743 7.35168C63.4991 7.35168 64.1771 8.46886 64.1771 10.5713V15.5215H66.3953V10.5713C66.3953 8.93788 66.1527 7.74729 65.5953 6.83538C65.0255 5.93467 64.0328 5.46566 62.663 5.45322Z" fill="#1C1917"/>
    <path d="M73.7151 5.4652C72.2608 5.4652 70.9271 5.9703 69.9455 6.84738C68.9639 7.72445 68.3456 9.0581 68.3456 10.5721C68.3456 12.0862 68.9639 13.4198 69.9455 14.2845C70.9271 15.1615 72.2732 15.6666 73.7151 15.6666C74.7452 15.6666 75.6907 15.4141 76.5516 14.9214C77.4125 14.4288 78.0669 13.7557 78.5035 12.9035L76.6001 12.0028C76.0664 13.1922 75.0127 13.9013 73.7039 13.9013C72.9525 13.9013 72.2856 13.6612 71.7158 13.181C71.1461 12.7008 70.7828 12.075 70.6372 11.3061H78.9887C79.0858 9.56443 78.552 8.05039 77.6066 7.05265C76.6598 6.06609 75.2664 5.4652 73.7151 5.4652ZM70.636 9.82693C70.7815 9.04565 71.1324 8.42113 71.691 7.94092C72.2483 7.4719 72.9151 7.23179 73.7151 7.23179C74.515 7.23179 75.1943 7.4719 75.7516 7.94092C76.309 8.40993 76.661 9.04565 76.8066 9.82693H70.636Z" fill="#1C1917"/>
    <defs>
        <linearGradient id="paint0_linear_28_3432" x1="16.0527" y1="12.6774" x2="16.9818" y2="9.54952" gradientUnits="userSpaceOnUse">
            <stop offset="0.2656" stop-color="#FFB7B2"/>
            <stop offset="0.5781" stop-color="#AB9EFC"/>
        </linearGradient>
    </defs>
</svg>
